{
  "asset": {
    "generator": "Khronos glTF Blender I/O v3.2.43",
    "version": "2.0"
  },
  "extensionsUsed": ["KHR_materials_clearcoat"],
  "scene": 0,
  "scenes": [
    {
      "name": "Scene",
      "nodes": [2]
    }
  ],
  "nodes": [
    {
      "mesh": 0,
      "name": "Object_2",
      "translation": [
        -0.10129678249359131, 0.4713705778121948, 0.34480005502700806
      ]
    },
    {
      "children": [0],
      "name": "T-Rex.stl.cleaner.materialmerger.gles"
    },
    {
      "children": [1],
      "name": "Sketchfab_model",
      "rotation": [-0.7071068286895752, 0, 0, 0.7071067094802856]
    }
  ],
  "materials": [
    {
      "doubleSided": true,
      "extensions": {
        "KHR_materials_clearcoat": {
          "clearcoatFactor": 1,
          "clearcoatRoughnessFactor": 0.1841152459383011
        }
      },
      "name": "Scene_-_Root.001",
      "pbrMetallicRoughness": {
        "baseColorFactor": [0.3677273392677307, 0.363665372133255, 1, 1],
        "roughnessFactor": 0
      }
    }
  ],
  "meshes": [
    {
      "name": "Object_0.001",
      "primitives": [
        {
          "attributes": {
            "POSITION": 0,
            "NORMAL": 1
          },
          "indices": 2,
          "material": 0
        }
      ]
    }
  ],
  "accessors": [
    {
      "bufferView": 0,
      "componentType": 5126,
      "count": 6644,
      "max": [5.090826511383057, 7.2415995597839355, 12.742834091186523],
      "min": [-9.061468124389648, -4.688713073730469, -0.9210927486419678],
      "type": "VEC3"
    },
    {
      "bufferView": 1,
      "componentType": 5126,
      "count": 6644,
      "type": "VEC3"
    },
    {
      "bufferView": 2,
      "componentType": 5123,
      "count": 25230,
      "type": "SCALAR"
    }
  ],
  "bufferViews": [
    {
      "buffer": 0,
      "byteLength": 79728,
      "byteOffset": 0
    },
    {
      "buffer": 0,
      "byteLength": 79728,
      "byteOffset": 79728
    },
    {
      "buffer": 0,
      "byteLength": 50460,
      "byteOffset": 159456
    }
  ],
  "buffers": [
    {
      "byteLength": 209916,
      "uri": "data:application/octet-stream;base64,"
    }
  ]
}
