{
  "asset": {
    "generator": "Khronos glTF Blender I/O v3.2.43",
    "version": "2.0"
  },
  "scene": 0,
  "scenes": [
    {
      "name": "Scene",
      "nodes": [0]
    }
  ],
  "nodes": [
    {
      "mesh": 0,
      "name": "Object_2",
      "rotation": [-0.7071068286895752, 0, 0, 0.7071067094802856],
      "translation": [2.061671257019043, 0.3262220621109009, 1.9353770017623901]
    }
  ],
  "materials": [
    {
      "doubleSided": true,
      "name": "Material",
      "pbrMetallicRoughness": {
        "baseColorFactor": [0.03471606224775314, 0.8000000715255737, 0, 1],
        "roughnessFactor": 0
      }
    }
  ],
  "meshes": [
    {
      "name": "Object_0.001",
      "primitives": [
        {
          "attributes": {
            "POSITION": 0,
            "NORMAL": 1
          },
          "indices": 2,
          "material": 0
        }
      ]
    }
  ],
  "accessors": [
    {
      "bufferView": 0,
      "componentType": 5126,
      "count": 4190,
      "max": [5.090826511383057, 6.445295810699463, 12.742834091186523],
      "min": [-8.53345775604248, -4.688713073730469, -0.9210927486419678],
      "type": "VEC3"
    },
    {
      "bufferView": 1,
      "componentType": 5126,
      "count": 4190,
      "type": "VEC3"
    },
    {
      "bufferView": 2,
      "componentType": 5123,
      "count": 24798,
      "type": "SCALAR"
    }
  ],
  "bufferViews": [
    {
      "buffer": 0,
      "byteLength": 50280,
      "byteOffset": 0
    },
    {
      "buffer": 0,
      "byteLength": 50280,
      "byteOffset": 50280
    },
    {
      "buffer": 0,
      "byteLength": 49596,
      "byteOffset": 100560
    }
  ],
  "buffers": [
    {
      "byteLength": 150156,
      "uri": "data:application/octet-stream;base64,"
    }
  ]
}
