<svg width="235" height="25" viewBox="0 0 235 25" fill="none" xmlns="http://www.w3.org/2000/svg">
<path d="M22.3148 12.5389C22.3148 14.8343 21.0073 16.723 18.6925 16.723H8.9201V8.34523H18.6925C21.0073 8.34523 22.3148 10.2145 22.3148 12.5292V12.5389ZM0 1.10067V23.9772H20.3584C26.6441 24.0644 31.3027 18.7472 31.2542 12.5389C31.3027 6.29196 26.6441 1.01351 20.3584 1.10067H0Z" fill="white"/>
<path d="M33.9175 1.06152V23.9477H42.8376V1.06152H33.9175Z" fill="white"/>
<path d="M69.8885 13.1874L59.8449 1.06152H47.5737V23.9477H56.4938V9.96225L68.7844 23.938H78.828V1.06152H69.8885V13.1874Z" fill="white"/>
<path d="M97.6175 0.5C89.0073 0.51937 81.9565 2.99879 81.9855 11.6671V13.3329C81.9468 21.9818 88.9976 24.4806 97.6175 24.5C106.218 24.4806 113.259 21.9818 113.23 13.3329V11.6671C113.23 3.01816 106.237 0.5 97.6175 0.5V0.5ZM104.31 12.7712C104.358 16.5194 101.259 17.1973 97.6175 17.2458C93.9565 17.1973 90.8572 16.5097 90.9056 12.7712V12.2094C90.8572 8.48063 93.9565 7.80266 97.6175 7.74455C101.259 7.79298 104.358 8.48063 104.31 12.2094V12.7712Z" fill="white"/>
<path d="M130.614 3.98692H132.319V7.39612H128.91V5.69152H127.205V3.98692H120.396V5.69152H118.692V9.10072H120.396V10.8053H128.91V12.5099H130.614V14.2145H132.319V21.0232H130.614V22.7278H128.91V24.4324H118.692V22.7278H116.987V21.0232H115.283V17.614H118.682V19.3186H120.387V21.0232H127.195V19.3186H128.9V15.9094H127.195V14.2048H118.682V12.5002H116.978V10.7956H115.273V3.98692H116.978V2.292H118.682V0.587402H128.9V2.292H130.605V3.9966L130.614 3.98692Z" fill="#00FF00"/>
<path d="M147.641 3.98692H140.832V5.69152H139.127V19.309H140.832V21.0135H147.641V19.309H149.345V5.69152H147.641V3.98692ZM139.127 2.28232V0.587402H149.345V2.292H151.05V3.9966H152.755V21.0135H151.05V22.7182H149.345V24.4228H139.127V22.7182H137.423V21.0135H135.718V3.98692H137.423V2.292H139.127V2.28232Z" fill="#00FF00"/>
<path d="M157.849 21.0135H156.145V0.587402H159.554V19.309H161.258V21.0135H168.067V19.309H169.772V0.587402H173.171V21.0135H171.467V22.7182H169.762V24.4228H159.544V22.7182H157.839V21.0135H157.849Z" fill="#00FF00"/>
<path d="M179.99 3.98692V10.7956H188.503V9.09103H190.208V5.68183H188.503V3.97723H179.99V3.98692ZM181.694 14.2048H179.99V24.4228H176.581V0.587402H190.198V2.292H191.903V3.9966H193.607V10.8053H191.903V12.5099H190.198V14.2145H186.798V15.9191H188.503V17.6237H190.208V19.3283H191.912V21.0329H193.617V24.4421H190.208V22.7375H188.503V21.0329H186.798V19.3283H185.094V17.6237H183.389V15.9191H181.685V14.2145L181.694 14.2048Z" fill="#00FF00"/>
<path d="M202.121 21.0135H208.929V19.309H210.634V17.6043H214.043V21.0135H212.339V22.7182H210.634V24.4228H200.416V22.7182H198.711V21.0135H197.007V3.98692H198.711V2.292H200.416V0.587402H210.634V2.292H212.339V3.9966H214.043V7.4058H210.634V5.7012H208.929V3.9966H202.121V5.7012H200.416V19.3186H202.121V21.0232V21.0135Z" fill="#00FF00"/>
<path d="M234.469 0.587402V3.98692H220.852V10.7956H231.07V14.2048H220.852V21.0135H234.469V24.4228H217.442V0.587402H234.469Z" fill="#00FF00"/>
</svg>
