<svg id="full-logo" xmlns="http://www.w3.org/2000/svg" xmlns:xlink="http://www.w3.org/1999/xlink" viewBox="0 0 119 30" shape-rendering="geometricPrecision" text-rendering="geometricPrecision" width="119" height="30">
<style><![CDATA[
#full-logo-s-g3_to {animation: full-logo-s-g3_to__to 2700ms linear infinite normal forwards}@keyframes full-logo-s-g3_to__to { 0% {offset-distance: 0%} 25.925926% {offset-distance: 50.722356%;animation-timing-function: cubic-bezier(0.42,0,0.58,1)} 51.851852% {offset-distance: 100%} 100% {offset-distance: 100%}} #full-logo-s-g5_to {animation: full-logo-s-g5_to__to 2700ms linear infinite normal forwards}@keyframes full-logo-s-g5_to__to { 0% {transform: translate(59.524879px,-11.927349px)} 51.851852% {transform: translate(59.524879px,-11.927349px);animation-timing-function: cubic-bezier(0.445,0.05,0.55,0.95)} 77.777778% {transform: translate(59.524879px,15px)} 100% {transform: translate(59.524879px,44.072849px)}}
]]></style>
<g id="full-logo-s-g1" clip-path="url(#full-logo-u-clip0_80_132)"><g id="full-logo-s-g2" transform="translate(-.004879 0)"><g id="full-logo-s-g3_to" style="offset-path:path('M56.807236,-15Q56.807236,-15,56.807236,14.999999C56.807236,14.999999,56.807236,44.145516,56.807236,44.145516');offset-rotate:0deg"><g id="full-logo-s-g3" transform="translate(-56.807236,-12.072282)" clip-path="url(#full-logo-u-clip1_80_132)"><g id="full-logo-s-g4"><path id="full-logo-s-path1" d="M22.5072,12.1112c0,2.2954-1.3076,4.184-3.6223,4.184h-9.77242v-8.37771h9.77242c2.3147,0,3.6223,1.86925,3.6223,4.18401v.0097ZM0.192383,0.672939v22.876561h20.358317c6.2857.0871,10.9443-5.2301,10.8959-11.4383.0484-6.24698-4.6102-11.525428-10.8959-11.438261h-20.358317v0Z" fill="#fff"/><path id="full-logo-s-path2" d="M34.1099,0.633789v22.886211h8.9201v-22.886211h-8.9201Z" fill="#fff"/><path id="full-logo-s-path3" d="M70.0809,12.7597L60.0373,0.633789h-12.2712v22.886211h8.9201v-13.98548L68.9768,23.5103h10.0435v-22.876511h-8.9394v12.125911Z" fill="#fff"/><path id="full-logo-s-path4" d="M97.8099,0.072266c-8.6102.01937-15.6611,2.498784-15.632,11.167034v1.6659c-.0387,8.6489,7.0121,11.1477,15.632,11.1671c8.6001-.0194,15.6421-2.5182,15.6121-11.1671v-1.6659c0-8.64888-6.992-11.167034-15.6121-11.167034v0ZM104.502,12.3435c.049,3.7481-3.05,4.4261-6.6921,4.4745-3.6611-.0484-6.7603-.736-6.7119-4.4745v-.5618c-.0484-3.7288,3.0508-4.40677,6.7119-4.46488c3.6421.04842,6.7411.73608,6.6921,4.46488v.5618v0Z" fill="#fff"/></g><clipPath id="full-logo-u-clip1_80_132"><rect id="full-logo-s-rect1" width="119" height="24" rx="0" ry="0" fill="#fff"/></clipPath></g></g><g id="full-logo-s-g5_to" transform="translate(59.524879,-11.927349)"><g id="full-logo-s-g5" transform="translate(-59.524879,-44.072849)" clip-path="url(#full-logo-u-clip2_80_132)"><g id="full-logo-s-g6"><path id="full-logo-s-path5" d="M15.2682,35.545h1.7046v3.4092h-3.4092v-1.7046h-1.7046v-1.7046h-6.80875v1.7046h-1.7046v3.4092h1.7046v1.7046h8.51335v1.7046h1.7046v1.7046h1.7046v6.8087h-1.7046v1.7046h-1.7046v1.7046h-10.21795v-1.7046h-1.7046v-1.7046h-1.704605v-3.4092h3.399515v1.7046h1.70461v1.7046h6.80873v-1.7046h1.7046v-3.4092h-1.7046v-1.7046h-8.51334v-1.7046h-1.7046v-1.7046h-1.704602v-6.8087h1.704602v-1.6949h1.7046v-1.7046h10.21794v1.7046h1.7046v1.7046l.0097-.0097Z" fill="#0f0"/><path id="full-logo-s-path6" d="M32.2946,35.545h-6.8087v1.7046h-1.7046v13.6175h1.7046v1.7046h6.8087v-1.7046h1.7046v-13.6175h-1.7046v-1.7046v0Zm-8.5133-1.7046v-1.6949h10.2179v1.7046h1.7046v1.7046h1.7046v17.017h-1.7046v1.7046h-1.7046v1.7046h-10.2179v-1.7046h-1.7046v-1.7046h-1.7046v-17.0267h1.7046v-1.6949h1.7046v-.0097Z" fill="#0f0"/><path id="full-logo-s-path7" d="M42.5029,52.5717h-1.7046v-20.4262h3.4092v18.7216h1.7046v1.7046h6.8088v-1.7046h1.7046v-18.7216h3.3995v20.4262h-1.7046v1.7046h-1.7046v1.7046h-10.2179v-1.7046h-1.7046v-1.7046h.0096Z" fill="#0f0"/><path id="full-logo-s-path8" d="M64.6436,35.545v6.8087h8.5133v-1.7046h1.7046v-3.4092h-1.7046v-1.7046h-8.5133v.0097Zm1.7046,10.2179h-1.7046v10.218h-3.4092v-23.8354h13.6174v1.7046h1.7046v1.7046h1.7046v6.8087h-1.7046v1.7046h-1.7046v1.7046h-3.3995v1.7046h1.7046v1.7046h1.7046v1.7046h1.7046v1.7046h1.7046v3.4092h-3.4092v-1.7046h-1.7046v-1.7046h-1.7046v-1.7046h-1.7046v-1.7046h-1.7046v-1.7046h-1.7046v-1.7046l.0097-.0097Z" fill="#0f0"/><path id="full-logo-s-path9" d="M86.7744,52.5717h6.8088v-1.7046h1.7046v-1.7046h3.4092v3.4092h-1.7046v1.7046h-1.7046v1.7046h-10.218v-1.7046h-1.7046v-1.7046h-1.7046v-17.0267h1.7046v-1.6949h1.7046v-1.7046h10.218v1.7046h1.7046v1.7046h1.7046v3.4092h-3.4092v-1.7046h-1.7046v-1.7046h-6.8088v1.7046h-1.7046v13.6174h1.7046v1.7046-.0096Z" fill="#0f0"/><path id="full-logo-s-path10" d="M119.123,32.1455v3.3995h-13.618v6.8087h10.218v3.4092h-10.218v6.8088h13.618v3.4092h-17.027v-23.8354h17.027v0Z" fill="#0f0"/></g><clipPath id="full-logo-u-clip2_80_132"><rect id="full-logo-s-rect2" width="119" height="24" rx="0" ry="0" transform="translate(0 32)" fill="#fff"/></clipPath></g></g></g><clipPath id="full-logo-u-clip0_80_132"><rect id="full-logo-s-rect3" width="119" height="56" rx="0" ry="0" fill="#fff"/></clipPath></g></svg>
