<svg width="400" height="38" viewBox="0 0 400 38" fill="none" xmlns="http://www.w3.org/2000/svg">
<path d="M38.0686 18.7405C38.0686 22.3137 35.838 25.2536 31.889 25.2536H15.2175V12.2122H31.889C35.838 12.2122 38.0686 15.122 38.0686 18.7254V18.7405ZM0 0.934762V36.5462H34.7309C45.4543 36.6819 53.4017 28.4047 53.3191 18.7405C53.4017 9.01593 45.4543 0.799071 34.7309 0.934762H0Z" fill="black"/>
<path d="M57.8628 0.873779V36.5003H73.0803V0.873779H57.8628Z" fill="black"/>
<path d="M119.229 19.7499L102.095 0.873779H81.1602V36.5003H96.3777V14.7294L117.345 36.4852H134.479V0.873779H119.229V19.7499Z" fill="black"/>
<path d="M166.533 -0.000244141C151.845 0.0299095 139.816 3.88957 139.866 17.3833V19.9765C139.799 33.4401 151.828 37.3299 166.533 37.3601C181.206 37.3299 193.218 33.4401 193.168 19.9765V17.3833C193.168 3.91972 181.239 -0.000244141 166.533 -0.000244141V-0.000244141ZM177.951 19.1021C178.033 24.9368 172.746 25.9922 166.533 26.0675C160.288 25.9922 155 24.9217 155.083 19.1021V18.2276C155 12.423 160.288 11.3677 166.533 11.2772C172.746 11.3526 178.033 12.423 177.951 18.2276V19.1021Z" fill="black"/>
<path d="M222.826 5.42794H225.734V10.735H219.918V8.08146H217.01V5.42794H205.394V8.08146H202.486V13.3885H205.394V16.042H219.918V18.6955H222.826V21.349H225.734V31.948H222.826V34.6015H219.918V37.2551H202.486V34.6015H199.578V31.948H196.67V26.641H202.47V29.2945H205.378V31.948H216.993V29.2945H219.901V23.9875H216.993V21.334H202.47V18.6804H199.562V16.0269H196.654V5.42794H199.562V2.7895H202.47V0.135986H219.901V2.7895H222.809V5.44302L222.826 5.42794Z" fill="black"/>
<path d="M251.873 5.42794H240.258V8.08146H237.35V29.2794H240.258V31.933H251.873V29.2794H254.781V8.08146H251.873V5.42794ZM237.35 2.77443V0.135986H254.781V2.7895H257.689V5.44302H260.597V31.933H257.689V34.5865H254.781V37.24H237.35V34.5865H234.442V31.933H231.534V5.42794H234.442V2.7895H237.35V2.77443Z" fill="black"/>
<path d="M269.288 31.933H266.38V0.135986H272.196V29.2794H275.104V31.933H286.719V29.2794H289.627V0.135986H295.427V31.933H292.519V34.5865H289.611V37.24H272.179V34.5865H269.271V31.933H269.288Z" fill="black"/>
<path d="M307.059 5.42794V16.0269H321.583V13.3734H324.491V8.06638H321.583V5.41287H307.059V5.42794ZM309.967 21.334H307.059V37.24H301.243V0.135986H324.474V2.7895H327.382V5.44302H330.29V16.042H327.382V18.6955H324.474V21.349H318.675V24.0026H321.583V26.6561H324.491V29.3096H327.399V31.9631H330.307V37.2701H324.491V34.6166H321.583V31.9631H318.675V29.3096H315.767V26.6561H312.859V24.0026H309.951V21.349L309.967 21.334Z" fill="black"/>
<path d="M344.814 31.933H356.429V29.2794H359.337V26.6259H365.153V31.933H362.245V34.5865H359.337V37.24H341.906V34.5865H338.998V31.933H336.09V5.42794H338.998V2.7895H341.906V0.135986H359.337V2.7895H362.245V5.44302H365.153V10.7501H359.337V8.09654H356.429V5.44302H344.814V8.09654H341.906V29.2945H344.814V31.948V31.933Z" fill="black"/>
<path d="M400 0.135986V5.42794H376.769V16.0269H394.2V21.334H376.769V31.933H400V37.24H370.953V0.135986H400Z" fill="black"/>
</svg>
