<svg width="119" height="25" viewBox="0 0 119 25" fill="none" xmlns="http://www.w3.org/2000/svg">
<g clip-path="url(#clip0_507_1123)">
<path d="M22.5072 12.611C22.5072 14.9064 21.1996 16.795 18.8849 16.795H9.11248V8.41728H18.8849C21.1996 8.41728 22.5072 10.2865 22.5072 12.6013V12.611ZM0.192383 1.17273V24.0492H20.5507C26.8365 24.1364 31.495 18.8192 31.4466 12.611C31.495 6.36401 26.8365 1.08556 20.5507 1.17273H0.192383Z" fill="white"/>
<path d="M34.1099 1.13379V24.02H43.03V1.13379H34.1099Z" fill="white"/>
<path d="M70.0809 13.2597L60.0373 1.13379H47.7661V24.02H56.6862V10.0345L68.9768 24.0103H79.0203V1.13379H70.0809V13.2597Z" fill="white"/>
<path d="M97.8099 0.572266C89.1997 0.591636 82.1488 3.07105 82.1779 11.7393V13.4052C82.1392 22.0541 89.19 24.5529 97.8099 24.5723C106.41 24.5529 113.452 22.0541 113.422 13.4052V11.7393C113.422 3.09042 106.43 0.572266 97.8099 0.572266V0.572266ZM104.502 12.8435C104.551 16.5916 101.451 17.2696 97.8099 17.318C94.1488 17.2696 91.0496 16.582 91.098 12.8435V12.2817C91.0496 8.5529 94.1488 7.87493 97.8099 7.81682C101.451 7.86524 104.551 8.5529 104.502 12.2817V12.8435Z" fill="white"/>
</g>
<defs>
<clipPath id="clip0_507_1123">
<rect width="119" height="24" fill="white" transform="translate(0 0.5)"/>
</clipPath>
</defs>
</svg>
